<svg width="144" height="144" viewBox="0 0 144 144" fill="none" xmlns="http://www.w3.org/2000/svg">
<circle cx="72" cy="72" r="72" fill="#D9D9D9"/>
<path d="M111.478 59.0175H92.6172C92.2727 56.5773 91.5694 54.4099 90.5072 52.5151C89.445 50.5917 88.0813 48.9553 86.4163 47.606C84.7512 46.2568 82.8277 45.2233 80.6459 44.5056C78.4928 43.7879 76.1531 43.429 73.6268 43.429C69.0622 43.429 65.0861 44.563 61.6986 46.8309C58.311 49.0702 55.6842 52.3429 53.8182 56.6491C51.9522 60.9266 51.0191 66.1228 51.0191 72.2376C51.0191 78.5247 51.9522 83.807 53.8182 88.0845C55.7129 92.362 58.3541 95.5917 61.7416 97.7735C65.1292 99.9553 69.0478 101.046 73.4976 101.046C75.9952 101.046 78.3062 100.716 80.4306 100.056C82.5837 99.3955 84.4928 98.4338 86.1579 97.1706C87.823 95.8788 89.201 94.3142 90.2919 92.4769C91.4115 90.6395 92.1866 88.5438 92.6172 86.1898L111.478 86.2759C110.99 90.3237 109.77 94.2281 107.818 97.9888C105.895 101.721 103.297 105.065 100.024 108.022C96.7799 110.951 92.9043 113.276 88.3971 114.998C83.9187 116.692 78.8517 117.539 73.1962 117.539C65.3301 117.539 58.2966 115.759 52.0957 112.199C45.9234 108.64 41.0431 103.486 37.4545 96.74C33.8947 89.9936 32.1148 81.8261 32.1148 72.2376C32.1148 62.6204 33.9234 54.4386 37.5407 47.6922C41.1579 40.9458 46.067 35.807 52.2679 32.2759C58.4689 28.7161 65.445 26.9362 73.1962 26.9362C78.3062 26.9362 83.0431 27.6539 87.4067 29.0893C91.799 30.5247 95.689 32.6204 99.0766 35.3764C102.464 38.1036 105.22 41.4481 107.344 45.4099C109.498 49.3716 110.876 53.9075 111.478 59.0175Z" fill="#202020"/>
<path d="M73.3764 83.7862C70.5343 83.7862 68.0941 82.7815 66.0559 80.7719C64.0463 78.7336 63.0415 76.2934 63.0415 73.4513C63.0415 70.6379 64.0463 68.2264 66.0559 66.2169C68.0941 64.2073 70.5343 63.2025 73.3764 63.2025C76.1324 63.2025 78.5439 64.2073 80.6109 66.2169C82.6779 68.2264 83.7114 70.6379 83.7114 73.4513C83.7114 75.3461 83.2233 77.0829 82.2472 78.6618C81.2999 80.2121 80.0511 81.4609 78.5008 82.4083C76.9506 83.3269 75.2425 83.7862 73.3764 83.7862Z" fill="#00D09F"/>
</svg>
