<svg xmlns="http://www.w3.org/2000/svg" width="23.938" height="23.348" viewBox="0 0 23.938 23.348">
  <path id="iconmonstr-github-1" d="M11.969,0A11.97,11.97,0,0,0,8.186,23.327c.6.111.791-.26.791-.576V20.523c-3.329.724-4.023-1.412-4.023-1.412a3.17,3.17,0,0,0-1.33-1.751c-1.086-.743.083-.727.083-.727a2.513,2.513,0,0,1,1.834,1.234,2.548,2.548,0,0,0,3.483.994,2.539,2.539,0,0,1,.76-1.6c-2.658-.3-5.453-1.331-5.453-5.916A4.633,4.633,0,0,1,5.565,8.132a4.305,4.305,0,0,1,.117-3.168s1.005-.321,3.292,1.227a11.345,11.345,0,0,1,5.994,0c2.285-1.548,3.289-1.227,3.289-1.227a4.3,4.3,0,0,1,.118,3.168,4.62,4.62,0,0,1,1.232,3.213c0,4.6-2.8,5.61-5.465,5.906a2.861,2.861,0,0,1,.821,2.216v3.285c0,.318.192.692.8.575A11.971,11.971,0,0,0,11.969,0Z" fill="#fbfef9"/>
</svg>
